<svg id="Capa_1" data-name="Capa 1" xmlns="http://www.w3.org/2000/svg" viewBox="0 0 1366 768"><title>dibujos-09</title><path d="M389.79,189.86a488.83,488.83,0,0,0-29.25,116.71c-4,32-4.17,66.49,8,96.9,5.95,14.84,14.58,28.46,26.36,39.36,10.6,9.81,23,17.41,36,23.7,25.83,12.56,54.2,20.52,78,37,11.62,8,29.09,23.11,27.17,38.9-1.06,8.72-8,17.2-13.67,23.52a90.64,90.64,0,0,1-22.25,18c-10,5.8-1,21.36,9.08,15.54a105.63,105.63,0,0,0,38.42-37.77c5-8.53,7.45-17.68,5.87-27.52C552,524.72,547,516.39,541.15,509c-18.68-23.52-47.38-35.18-74.34-46.3-26.17-10.79-54.79-22.3-71.4-46.57-18.24-26.66-20.75-60.5-18.61-91.83,3-44.28,14.33-88.39,30.34-129.67,1.76-4.53-1.94-9.88-6.29-11.07-5.09-1.4-9.31,1.74-11.07,6.29Z"/><path d="M778.05,601.52C766.34,585.9,764.64,564.9,772.3,547A49.9,49.9,0,0,1,788.87,526c8.74-6.15,19.09-10.28,26-18.77,8.3-10.19,7.56-22.72-.56-32.8-4.48-5.56-10-10.34-15.11-15.33l-16.74-16.39c-6.6-6.46-20.94-16.71-13.32-27,3.27-4.43,8-7.91,12.24-11.41q9-7.52,18.42-14.62c9.82-7.41,20.12-14.5,27-24.92a36.32,36.32,0,0,0,3.58-33.74C820.58,306.76,792,295.06,770,284.81c-53.61-25-110.37-42-166.87-59.08-65.64-19.81-131.65-39.34-199.7-49-4.81-.68-9.67,1.18-11.07,6.29-1.16,4.22,1.44,10.39,6.29,11.07,59.75,8.44,118,24.54,175.73,41.76,55.89,16.67,112.39,32.72,166.21,55.43q20.5,8.65,40.31,18.85c10,5.16,20.17,10.71,27.68,19.3,6.64,7.6,8.67,16.73,3.08,25.54-6,9.45-16.68,15.72-25.37,22.4-10.86,8.36-23.61,16.81-31.84,27.95-8,10.83-6.95,24.15.93,34.73,8.73,11.73,20.66,21.51,31.07,31.71,4.66,4.56,10.09,9,14.12,14.12,2.71,3.46,3.24,6.27.84,9.45-2.91,3.85-7.56,6.45-11.6,8.91-5.49,3.34-11,6.49-15.89,10.64-9,7.54-15.29,17.69-19.46,28.53-8.35,21.72-6.09,48.32,8,67.16,2.91,3.88,7.78,5.88,12.31,3.23,3.83-2.24,6.16-8.4,3.23-12.31Z"/><path d="M763,553.31l51.63,18.38,25.82,9.19c8.1,2.88,16.94,5,23.56-2.18,5.15-5.56,5.79-13.86,7.41-20.89q2.76-12,6.37-23.71a330.22,330.22,0,0,1,17.55-45.21,348.73,348.73,0,0,1,28.18-48.48l-14.14,1.82q15.09,14.55,28.69,30.5c4.27,5,13.77,2.43,15-4l16-80.3c5.17-25.92,12.58-52.66,8.73-79.24-3.41-23.59-14.53-46.63-25.6-67.52a361.55,361.55,0,0,0-37.77-57.06c-28.8-35.84-65.57-69.68-109-86.23-23.65-9-49-13.88-73.84-18.28a750.35,750.35,0,0,0-75.75-9.51,676.78,676.78,0,0,0-151.47,5.74,599,599,0,0,0-72.89,15.75c-22.18,6.28-44.27,13.62-64.91,24-20.11,10.1-38.75,23.63-52.67,41.46-15,19.27-24.83,41.94-33.76,64.54a550.25,550.25,0,0,0-35.39,146.5c-1.22,12-2.39,24.25-2.36,36.36,0,10.89,1.93,22,9.21,30.54,15.19,17.73,40,9.63,57.87,1.35,3.13-1.45,8.55-5.62,12.09-5.29-.68-.06-1-.95-.45.26.47,1,1,1.93,1.39,2.92,1.58,3.61,3,7.27,4.57,10.9,5.05,12.06,10,24.18,15.18,36.19,4.24,9.82,10.35,19.45,21.13,22.8,11.86,3.69,23.77-2.28,32.7-9.77,7.15-6,13.08-14.93,22.32-17.85,11-3.47,6.31-20.85-4.79-17.36C403.14,463,395.71,470.39,388,477.89c-5.07,4.93-14.76,13.79-22.12,8.09-3.07-2.38-4.94-6.49-6.54-9.88-2.49-5.29-4.61-10.77-6.87-16.17-4.91-11.73-9.42-23.75-14.8-35.27-5.67-12.14-17.54-12.78-28.49-7.61-8.68,4.1-17.13,8.55-26.63,10.53-7.06,1.47-14.72.75-18.83-5.9-4.92-8-3.35-19.37-2.86-28.22a532.09,532.09,0,0,1,26.87-139.67C301.56,212.48,318.35,168.23,356,143c17.55-11.75,37.14-19.85,57.12-26.47A577.19,577.19,0,0,1,482,98.49,637.1,637.1,0,0,1,624.51,87a705.76,705.76,0,0,1,141.32,18.45c23.33,5.49,45.51,13.09,65.67,26.3,18.1,11.86,34.51,26.45,49.5,42a337,337,0,0,1,69.53,106.37c4.45,11,8.63,22.44,10,34.25,1.42,12.18-.09,24.49-2.27,36.47-4.62,25.37-10,50.62-15.07,75.91L935.78,464l15-4q-13.6-16-28.69-30.5c-4.42-4.26-10.82-3-14.14,1.82a357.28,357.28,0,0,0-42,81.35,343.9,343.9,0,0,0-12.72,43.76c-.67,3-1.45,6.07-2.06,9.11-.55,2.72.32-.15.51.44l.45-.15-1.65-.46c-1.41-.61-2.93-1-4.38-1.53l-24-8.53L767.81,536c-10.93-3.89-15.64,13.49-4.79,17.36Z"/><path d="M442,269v1a9.25,9.25,0,0,0,9,9,9.09,9.09,0,0,0,6.36-2.64A9.35,9.35,0,0,0,460,270v-1a9.25,9.25,0,0,0-9-9,9.09,9.09,0,0,0-6.36,2.64A9.35,9.35,0,0,0,442,269Z"/><path d="M659,332h1a9.25,9.25,0,0,0,9-9,9.09,9.09,0,0,0-2.64-6.36A9.35,9.35,0,0,0,660,314h-1a9.25,9.25,0,0,0-9,9,9.09,9.09,0,0,0,2.64,6.36A9.35,9.35,0,0,0,659,332Z"/><path d="M468,420.07l105,14c4.83.64,9-4.6,9-9,0-5.4-4.16-8.35-9-9l-105-14c-4.83-.64-9,4.6-9,9,0,5.4,4.16,8.35,9,9Z"/><path d="M471.79,403c-1.64-14.76,2.67-30.87,8.21-44.49,4.84-11.88,12.62-23.09,23.78-29.78,9.74-5.84,22.06-7.65,32.47-2.35,12.38,6.31,15.55,21,18.83,33.4a239.29,239.29,0,0,1,7.81,54.24c.35,11.56,18.35,11.61,18,0a261.89,261.89,0,0,0-8-57.18c-4.31-16.81-9.5-34.85-25.08-44.58-30.24-18.9-65.6,2.46-80.27,30.51a124.49,124.49,0,0,0-10.23,27.76c-2.61,10.54-4.76,21.58-3.55,32.46.54,4.83,3.75,9,9,9,4.45,0,9.54-4.14,9-9Z"/></svg>