<svg id="Capa_1" data-name="Capa 1" xmlns="http://www.w3.org/2000/svg" viewBox="0 0 572 425"><title>Work</title><path d="M411,9.43Q386.63,63,359.82,115.36c-4.39,8.58,8.55,16.18,13,7.57Q399.58,70.57,424,17c1.69-3.71,1-8-2.69-10.26-3.2-1.92-8.59-1-10.26,2.69Z"/><path d="M341.2,118.51,379.4,135c3.74,1.62,8,1.08,10.26-2.69,1.89-3.15,1-8.66-2.69-10.26l-38.2-16.53c-3.74-1.62-8-1.08-10.26,2.69-1.89,3.15-1,8.66,2.69,10.26Z"/><path d="M337.63,113a213.55,213.55,0,0,0,.49,29.46c.69,7.86,1.34,17.58,11.08,19,7.86,1.16,15.83-5.23,22-9.26A251.23,251.23,0,0,0,392.8,136.4c3.17-2.57,2.63-7.92,0-10.61-3.07-3.14-7.48-2.54-10.61,0q-7.18,5.83-14.83,11-3.67,2.49-7.44,4.83c-2.41,1.5-6.08,2.82-8.11,4.76l-.92.27q3.71,4.19,2.88,1.56c.28-.72-.39-3-.47-3.81-.31-3.26-.56-6.53-.72-9.8-.36-7.21-.31-14.41.05-21.62.48-9.65-14.52-9.62-15,0Z"/><path d="M348.44,129.39a102,102,0,0,0,9,5c1.44.7,2.9,1.35,4.37,2l3.06,1.28q2,1,.94.27l-2.2-5.3,0,1.08,1-3.79c.26-.48,1.28-.2.11-.09-.52,0-1.09.27-1.62.35a24.94,24.94,0,0,1-5.7.2l3.79,1-.53-.35,3.71,6.48a24.53,24.53,0,0,0-.78-6.24,7.57,7.57,0,0,0-14.46,0,25.21,25.21,0,0,0-1.26,11.24c.48,4,3.1,7.5,7.5,7.5,3.69,0,8-3.45,7.5-7.5l-.12-1c-.47-4-3.11-7.5-7.5-7.5-3.69,0-8,3.45-7.5,7.5l.12,1h15a15,15,0,0,1,.73-7.26H349.19c1,3.06.14,5.62,3.2,8.15,2.43,2,5.28,2.1,8.26,1.94,5.35-.28,10.95-1,14.9-5,5.76-5.84,2.73-13.43-4.14-16.21a102.82,102.82,0,0,1-15.4-7.7c-8.25-5.06-15.79,7.9-7.57,13Z"/><path d="M361.45,120.58a13,13,0,0,0-4.23,9.95c.14,3.41,1.78,6.47,5,7.84a12.71,12.71,0,0,0,7.64.5c3.85-.78,6.43-5.56,5.24-9.23a7.69,7.69,0,0,0-9.23-5.24l-.41.08,2-.27a7.23,7.23,0,0,1-1.27,0l2,.27a5.44,5.44,0,0,1-1.07-.24l1.79.76-.2-.15,2.69,2.69-.12-.23.76,1.79,0-.26.27,2a7,7,0,0,1,0-1.4l-.27,2a7.51,7.51,0,0,1,.36-1.35l-.76,1.79a7,7,0,0,1,.89-1.5l-1.17,1.52a7.81,7.81,0,0,1,.74-.74c3-2.59,2.85-8,0-10.61a7.68,7.68,0,0,0-10.61,0Z"/></svg>