<svg id="Capa_1" data-name="Capa 1" xmlns="http://www.w3.org/2000/svg" viewBox="0 0 572 425"><title>Work</title><path d="M129.42,195.09,142,268.61c2.06,12.09,4,24.21,6.19,36.27,1.63,8.86,5.26,17.17,14.38,20.23,3.61,1.21,8.52-1.4,9.23-5.24A1131.85,1131.85,0,0,1,232.15,109c1.5-3.8-1.64-8.2-5.24-9.23-4.24-1.21-7.75,1.49-9.23,5.24A1131.85,1131.85,0,0,0,157.3,315.89l9.23-5.24c-2.21-.74-2.83-4.75-3.28-6.63-1.08-4.57-1.68-9.28-2.47-13.91l-5.69-33.33L143.88,191.1c-1.62-9.5-16.08-5.47-14.46,4Z"/><path d="M198.78,256c-3.87,14.62-5.54,30.37-3.07,45.37,1.94,11.74,9.4,25.38,22.67,26.46,15.65,1.28,19-16.6,21.13-28.28a197.82,197.82,0,0,0,2.8-48.54c-.64-9.58-15.64-9.65-15,0a188,188,0,0,1-.86,35.46,171.87,171.87,0,0,1-3.1,17.34c-.36,1.59-1.24,8.46-3.37,9.15-2.8.92-6.23-4.54-7.15-6.37a32.63,32.63,0,0,1-2.9-11.28A100.92,100.92,0,0,1,213.25,260c2.47-9.34-12-13.33-14.46-4Z"/><path d="M263.47,321c0-8.77,0-17.6,1.08-26.31A83.55,83.55,0,0,1,266.8,283a64.24,64.24,0,0,1,2.11-6.57,28.66,28.66,0,0,1,1.28-3q1.9-2.92-.78-.45h-4c-1.69-.5-.11.59.48,1.65s1,1.9,1.51,2.87A57.38,57.38,0,0,1,270,284a151.09,151.09,0,0,1,4.18,14.93c2.35,9.86,4.42,19.77,8.36,29.16,3.35,8,13.59,6.59,14.73-2,1.47-11,2.62-22.06,3.38-33.15.25-3.7.61-21.19,8.45-15.79,6.68,4.6,8.74,15.59,10.25,22.92,2,9.76,3.09,19.67,6.23,29.16,3,9.12,17.51,5.21,14.46-4-4-12.1-4.58-24.94-8.17-37.13-3.21-10.9-9.65-24.3-22-26.68-13.74-2.63-21.94,10.13-23.42,22-1.76,14.17-2.25,28.47-4.14,42.64l14.73-2c-4.57-10.91-6.6-22.54-9.53-33.94A112.11,112.11,0,0,0,282,273.66c-2.16-5-4.75-11.22-9.75-14-22.65-12.69-23.77,50.84-23.8,61.36,0,9.65,15,9.67,15,0Z"/><path d="M383,272.81c-12.86-5.42-27.77.76-34.75,12.39-6.63,11-6.64,27.72,3,37.14,9.86,9.67,26.06,7.49,32-5.16,5.78-12.25,2.55-27.94-.27-40.53L370.44,284c3.69,3.58,4.78,8.57,5.39,13.54A185.23,185.23,0,0,1,377,318.24a226,226,0,0,1-3.53,42.47q-1.83,10.08-4.53,20c-1.61,5.88-2.84,14.24-6.81,19.08-7.76,9.44-22.62-1-29.74-5.79-8.05-5.37-15.57,7.62-7.57,13,12.53,8.36,28.7,16.4,43.19,7.36,6.88-4.29,9.78-11.55,12.19-18.91a232.69,232.69,0,0,0,6.67-25.18A246.47,246.47,0,0,0,392,318.24c-.13-14.72.51-33.82-10.92-44.9-5.52-5.35-14.15.07-12.54,7.3,1.78,8,3.68,16.88,2.59,25.08-.65,4.87-3.93,11.15-9.29,6-4.85-4.65-3.78-13.77-.62-19,3.89-6.4,11-8.35,17.81-5.5,3.76,1.58,8.22-1.71,9.23-5.24,1.23-4.31-1.52-7.66-5.24-9.23Z"/></svg>