<svg id="Capa_1" data-name="Capa 1" xmlns="http://www.w3.org/2000/svg" viewBox="0 0 572 425"><title>Work</title><path d="M129.42,195.09,142,268.61c2.06,12.09,4,24.21,6.19,36.27,1.63,8.86,5.26,17.17,14.38,20.23,3.61,1.21,8.52-1.4,9.23-5.24A1131.85,1131.85,0,0,1,232.15,109c1.5-3.8-1.64-8.2-5.24-9.23-4.24-1.21-7.75,1.49-9.23,5.24A1131.85,1131.85,0,0,0,157.3,315.89l9.23-5.24c-2.21-.74-2.83-4.75-3.28-6.63-1.08-4.57-1.68-9.28-2.47-13.91l-5.69-33.33L143.88,191.1c-1.62-9.5-16.08-5.47-14.46,4Z"/><path d="M198.78,256c-3.87,14.62-5.54,30.37-3.07,45.37,1.94,11.74,9.4,25.38,22.67,26.46,15.65,1.28,19-16.6,21.13-28.28a197.82,197.82,0,0,0,2.8-48.54c-.64-9.58-15.64-9.65-15,0a188,188,0,0,1-.86,35.46,171.87,171.87,0,0,1-3.1,17.34c-.36,1.59-1.24,8.46-3.37,9.15-2.8.92-6.23-4.54-7.15-6.37a32.63,32.63,0,0,1-2.9-11.28A100.92,100.92,0,0,1,213.25,260c2.47-9.34-12-13.33-14.46-4Z"/><path d="M263.47,321c0-8.77,0-17.6,1.08-26.31A83.55,83.55,0,0,1,266.8,283a64.24,64.24,0,0,1,2.11-6.57,28.66,28.66,0,0,1,1.28-3q1.9-2.92-.78-.45h-4c-1.69-.5-.11.59.48,1.65s1,1.9,1.51,2.87A57.38,57.38,0,0,1,270,284a151.09,151.09,0,0,1,4.18,14.93c2.35,9.86,4.42,19.77,8.36,29.16,3.35,8,13.59,6.59,14.73-2,1.47-11,2.62-22.06,3.38-33.15.25-3.7.61-21.19,8.45-15.79,6.68,4.6,8.74,15.59,10.25,22.92,2,9.76,3.09,19.67,6.23,29.16,3,9.12,17.51,5.21,14.46-4-4-12.1-4.58-24.94-8.17-37.13-3.21-10.9-9.65-24.3-22-26.68-13.74-2.63-21.94,10.13-23.42,22-1.76,14.17-2.25,28.47-4.14,42.64l14.73-2c-4.57-10.91-6.6-22.54-9.53-33.94A112.11,112.11,0,0,0,282,273.66c-2.16-5-4.75-11.22-9.75-14-22.65-12.69-23.77,50.84-23.8,61.36,0,9.65,15,9.67,15,0Z"/><path d="M383,272.81c-12.86-5.42-27.77.76-34.75,12.39-6.63,11-6.64,27.72,3,37.14,9.86,9.67,26.06,7.49,32-5.16,5.78-12.25,2.55-27.94-.27-40.53L370.44,284c3.69,3.58,4.78,8.57,5.39,13.54A185.23,185.23,0,0,1,377,318.24a226,226,0,0,1-3.53,42.47q-1.83,10.08-4.53,20c-1.61,5.88-2.84,14.24-6.81,19.08-7.76,9.44-22.62-1-29.74-5.79-8.05-5.37-15.57,7.62-7.57,13,12.53,8.36,28.7,16.4,43.19,7.36,6.88-4.29,9.78-11.55,12.19-18.91a232.69,232.69,0,0,0,6.67-25.18A246.47,246.47,0,0,0,392,318.24c-.13-14.72.51-33.82-10.92-44.9-5.52-5.35-14.15.07-12.54,7.3,1.78,8,3.68,16.88,2.59,25.08-.65,4.87-3.93,11.15-9.29,6-4.85-4.65-3.78-13.77-.62-19,3.89-6.4,11-8.35,17.81-5.5,3.76,1.58,8.22-1.71,9.23-5.24,1.23-4.31-1.52-7.66-5.24-9.23Z"/><path d="M411,9.43Q386.63,63,359.82,115.36c-4.39,8.58,8.55,16.18,13,7.57Q399.58,70.57,424,17c1.69-3.71,1-8-2.69-10.26-3.2-1.92-8.59-1-10.26,2.69Z"/><path d="M341.2,118.51,379.4,135c3.74,1.62,8,1.08,10.26-2.69,1.89-3.15,1-8.66-2.69-10.26l-38.2-16.53c-3.74-1.62-8-1.08-10.26,2.69-1.89,3.15-1,8.66,2.69,10.26Z"/><path d="M337.63,113a213.55,213.55,0,0,0,.49,29.46c.69,7.86,1.34,17.58,11.08,19,7.86,1.16,15.83-5.23,22-9.26A251.23,251.23,0,0,0,392.8,136.4c3.17-2.57,2.63-7.92,0-10.61-3.07-3.14-7.48-2.54-10.61,0q-7.18,5.83-14.83,11-3.67,2.49-7.44,4.83c-2.41,1.5-6.08,2.82-8.11,4.76l-.92.27q3.71,4.19,2.88,1.56c.28-.72-.39-3-.47-3.81-.31-3.26-.56-6.53-.72-9.8-.36-7.21-.31-14.41.05-21.62.48-9.65-14.52-9.62-15,0Z"/><path d="M348.44,129.39a102,102,0,0,0,9,5c1.44.7,2.9,1.35,4.37,2l3.06,1.28q2,1,.94.27l-2.2-5.3,0,1.08,1-3.79c.26-.48,1.28-.2.11-.09-.52,0-1.09.27-1.62.35a24.94,24.94,0,0,1-5.7.2l3.79,1-.53-.35,3.71,6.48a24.53,24.53,0,0,0-.78-6.24,7.57,7.57,0,0,0-14.46,0,25.21,25.21,0,0,0-1.26,11.24c.48,4,3.1,7.5,7.5,7.5,3.69,0,8-3.45,7.5-7.5l-.12-1c-.47-4-3.11-7.5-7.5-7.5-3.69,0-8,3.45-7.5,7.5l.12,1h15a15,15,0,0,1,.73-7.26H349.19c1,3.06.14,5.62,3.2,8.15,2.43,2,5.28,2.1,8.26,1.94,5.35-.28,10.95-1,14.9-5,5.76-5.84,2.73-13.43-4.14-16.21a102.82,102.82,0,0,1-15.4-7.7c-8.25-5.06-15.79,7.9-7.57,13Z"/><path d="M361.45,120.58a13,13,0,0,0-4.23,9.95c.14,3.41,1.78,6.47,5,7.84a12.71,12.71,0,0,0,7.64.5c3.85-.78,6.43-5.56,5.24-9.23a7.69,7.69,0,0,0-9.23-5.24l-.41.08,2-.27a7.23,7.23,0,0,1-1.27,0l2,.27a5.44,5.44,0,0,1-1.07-.24l1.79.76-.2-.15,2.69,2.69-.12-.23.76,1.79,0-.26.27,2a7,7,0,0,1,0-1.4l-.27,2a7.51,7.51,0,0,1,.36-1.35l-.76,1.79a7,7,0,0,1,.89-1.5l-1.17,1.52a7.81,7.81,0,0,1,.74-.74c3-2.59,2.85-8,0-10.61a7.68,7.68,0,0,0-10.61,0Z"/></svg>